<svg width="530" height="124" viewBox="0 0 530 124" fill="none" xmlns="http://www.w3.org/2000/svg">
<g clip-path="url(#clip0_124_1360)">
<path d="M525.382 39.2341H497.738L495.06 54.443L495.251 54.6343C497.1 52.785 499.077 51.4778 501.181 50.7125C503.286 49.8835 505.677 49.469 508.355 49.469C511.671 49.469 514.605 50.0748 517.156 51.2865C519.706 52.4981 521.843 54.1242 523.564 56.1648C525.35 58.2054 526.689 60.6286 527.582 63.4344C528.538 66.1765 529.017 69.1098 529.017 72.2345C529.017 75.678 528.347 78.8983 527.008 81.8955C525.669 84.8288 523.851 87.3796 521.556 89.5477C519.324 91.7159 516.709 93.4057 513.712 94.6173C510.715 95.7652 507.526 96.3072 504.147 96.2435C500.894 96.2435 497.77 95.829 494.773 95C491.839 94.1072 489.225 92.7681 486.929 90.9825C484.633 89.197 482.784 86.997 481.381 84.3825C480.042 81.7042 479.341 78.6114 479.277 75.1041H492.86C493.178 78.165 494.326 80.6201 496.303 82.4694C498.28 84.2549 500.799 85.1477 503.86 85.1477C505.645 85.1477 507.239 84.797 508.642 84.0955C510.109 83.3303 511.321 82.3737 512.277 81.2259C513.297 80.0143 514.063 78.6433 514.573 77.1128C515.147 75.5186 515.434 73.8925 515.434 72.2345C515.434 70.5127 515.179 68.8866 514.669 67.3562C514.158 65.8257 513.393 64.4866 512.373 63.3388C511.353 62.1909 510.141 61.2982 508.738 60.6605C507.335 60.0228 505.709 59.7039 503.86 59.7039C501.436 59.7039 499.46 60.1503 497.929 61.0431C496.399 61.8721 494.964 63.2112 493.625 65.0605H481.381L487.981 28.0427H525.382V39.2341Z" fill="white"/>
<path d="M403.52 57.5996H419.972C423.415 57.5996 425.998 56.8344 427.72 55.3039C429.442 53.7735 430.302 51.2865 430.302 47.843C430.302 44.527 429.442 42.1357 427.72 40.669C425.998 39.1385 423.415 38.3733 419.972 38.3733H403.52V57.5996ZM388.502 26.7036H425.328C428.389 26.7036 431.131 27.2138 433.555 28.2341C436.042 29.1906 438.146 30.5297 439.868 32.2515C441.653 33.9733 442.992 35.982 443.885 38.2776C444.842 40.5096 445.32 42.9328 445.32 45.5473C445.32 49.5647 444.459 53.0401 442.737 55.9735C441.079 58.9069 438.337 61.1388 434.511 62.6692V62.8605C436.36 63.3707 437.891 64.1678 439.103 65.2519C440.314 66.2722 441.303 67.5156 442.068 68.9823C442.833 70.3852 443.375 71.9476 443.694 73.6693C444.076 75.3911 444.332 77.1128 444.459 78.8346C444.523 79.9187 444.587 81.194 444.65 82.6607C444.714 84.1274 444.81 85.626 444.937 87.1564C445.129 88.6869 445.384 90.1536 445.703 91.5565C446.085 92.8956 446.627 94.0435 447.329 95H432.311C431.482 92.8319 430.972 90.2492 430.781 87.2521C430.589 84.255 430.302 81.3854 429.92 78.6433C429.41 75.0722 428.326 72.4577 426.668 70.7997C425.01 69.1418 422.299 68.3128 418.537 68.3128H403.52V95H388.502V26.7036Z" fill="white"/>
<path d="M326.477 26.7036H377.556V39.3298H341.494V53.9648H374.59V65.6345H341.494V82.3738H378.321V95H326.477V26.7036Z" fill="white"/>
<path d="M283.115 39.3298H262.645V26.7036H318.602V39.3298H298.132V95H283.115V39.3298Z" fill="white"/>
<path d="M220.081 26.7036H235.099V82.3738H268.386V95H220.081V26.7036Z" fill="white"/>
<path d="M171.818 68.5997H189.513L180.905 43.5386H180.713L171.818 68.5997ZM173.252 26.7036H188.653L214.192 95H198.6L193.435 79.7911H167.896L162.539 95H147.426L173.252 26.7036Z" fill="white"/>
<path d="M86 38H124V124H38V86H0V0H86V38ZM86 94.4854L50 58.4844V112H112V50H86V94.4854ZM12 74H38V29.5146L74 65.5156V12H12V74Z" fill="#50B6BE"/>
</g>
<defs>
<clipPath id="clip0_124_1360">
<rect width="530" height="124" fill="white"/>
</clipPath>
</defs>
</svg>
